<?xml version="1.0" encoding="UTF-8"?>
<!DOCTYPE svg PUBLIC "-//W3C//DTD SVG 1.1//EN" "http://www.w3.org/Graphics/SVG/1.1/DTD/svg11.dtd">
<svg xmlns="http://www.w3.org/2000/svg" version="1.1" width="128px" height="128px" style="shape-rendering:geometricPrecision; text-rendering:geometricPrecision; image-rendering:optimizeQuality; fill-rule:evenodd; clip-rule:evenodd" xmlns:xlink="http://www.w3.org/1999/xlink">
<g><path style="opacity:0.627" fill="#ff4e95" d="M 103.5,5.5 C 99.2508,5.68333 95.2508,5.68333 91.5,5.5C 95.6011,4.20916 99.6011,4.20916 103.5,5.5 Z"/></g>
<g><path style="opacity:1" fill="#fb9e66" d="M 91.5,5.5 C 95.2508,5.68333 99.2508,5.68333 103.5,5.5C 117.163,9.80601 122.33,19.1393 119,33.5C 112.583,46.4246 102.417,50.5912 88.5,46C 76.1058,37.7989 73.2725,26.9656 80,13.5C 82.9046,9.41792 86.7379,6.75126 91.5,5.5 Z"/></g>
<g><path style="opacity:0.972" fill="#9a98fc" d="M 65.5,37.5 C 64.5233,40.2869 64.19,43.2869 64.5,46.5C 55.6535,41.7165 46.6535,41.3832 37.5,45.5C 37.8134,42.7531 37.48,40.0865 36.5,37.5C 35.5712,38.5498 34.9046,38.5498 34.5,37.5C 44.8333,32.1667 55.1667,32.1667 65.5,37.5 Z"/></g>
<g><path style="opacity:1" fill="#c18efc" d="M 65.5,37.5 C 74.6344,41.3032 80.6344,47.9698 83.5,57.5C 84.7545,64.4879 84.7545,71.8213 83.5,79.5C 83.0388,81.5504 82.3721,83.5504 81.5,85.5C 82.8569,87.1856 84.1902,88.8523 85.5,90.5C 85.5595,95.0447 83.5595,98.378 79.5,100.5C 78.8333,97.1667 78.1667,93.8333 77.5,90.5C 75.5,92.1667 73.5,93.8333 71.5,95.5C 70.5159,92.5719 70.1826,89.5719 70.5,86.5C 73.8755,82.0777 75.8755,77.0777 76.5,71.5C 77.571,60.6443 73.571,52.311 64.5,46.5C 64.19,43.2869 64.5233,40.2869 65.5,37.5 Z"/></g>
<g><path style="opacity:1" fill="#feb56f" d="M 54.5,71.5 C 53.2563,73.4012 51.7563,75.0678 50,76.5C 47.8434,75.615 47.0101,73.9484 47.5,71.5C 49.1462,68.0807 51.6462,65.414 55,63.5C 55.8516,55.4262 52.6849,53.4262 45.5,57.5C 44.846,59.1151 44.346,60.7818 44,62.5C 41.2003,64.1179 39.7003,63.2845 39.5,60C 41.8696,50.6711 47.5363,48.0044 56.5,52C 60.2027,55.396 61.3694,59.5626 60,64.5C 59.0332,67.6206 57.1999,69.954 54.5,71.5 Z"/></g>
<g><path style="opacity:1" fill="#e5eff8" d="M 64.5,46.5 C 73.571,52.311 77.571,60.6443 76.5,71.5C 69.1667,71.5 61.8333,71.5 54.5,71.5C 57.1999,69.954 59.0332,67.6206 60,64.5C 61.3694,59.5626 60.2027,55.396 56.5,52C 47.5363,48.0044 41.8696,50.6711 39.5,60C 39.7003,63.2845 41.2003,64.1179 44,62.5C 44.346,60.7818 44.846,59.1151 45.5,57.5C 52.6849,53.4262 55.8516,55.4262 55,63.5C 51.6462,65.414 49.1462,68.0807 47.5,71.5C 39.8333,71.5 32.1667,71.5 24.5,71.5C 24.5,68.5 24.5,65.5 24.5,62.5C 26.1806,54.8176 30.514,49.151 37.5,45.5C 46.6535,41.3832 55.6535,41.7165 64.5,46.5 Z"/></g>
<g><path style="opacity:0.961" fill="#fea666" d="M 103.5,57.5 C 110.175,57.3337 116.842,57.5004 123.5,58C 124,58.5 124.5,59 125,59.5C 125.81,66.0816 125.643,72.5816 124.5,79C 117.508,79.4996 110.508,79.6663 103.5,79.5C 103.5,72.1667 103.5,64.8333 103.5,57.5 Z"/></g>
<g><path style="opacity:0.942" fill="#deebf5" d="M 17.5,56.5 C 15.0083,64.4618 15.0083,72.4618 17.5,80.5C 12.5824,79.7186 7.58239,79.2186 2.5,79C 1.35666,72.5816 1.18999,66.0816 2,59.5C 2.5,59 3,58.5 3.5,58C 8.24972,57.7773 12.9164,57.2773 17.5,56.5 Z"/></g>
<g><path style="opacity:1" fill="#f1f0ef" d="M 109.5,63.5 C 112.747,64.4284 115.913,64.7617 119,64.5C 118.997,67.6682 118.83,70.8349 118.5,74C 116.633,74.7112 115.133,74.2112 114,72.5C 112.333,75.1667 110.667,75.1667 109,72.5C 108.493,71.0039 108.993,69.8373 110.5,69C 108.365,67.4443 108.032,65.6109 109.5,63.5 Z"/></g>
<g><path style="opacity:1" fill="#e1eef8" d="M 83.5,57.5 C 90.1667,57.5 96.8333,57.5 103.5,57.5C 103.5,64.8333 103.5,72.1667 103.5,79.5C 96.8333,79.5 90.1667,79.5 83.5,79.5C 84.7545,71.8213 84.7545,64.4879 83.5,57.5 Z"/></g>
<g><path style="opacity:1" fill="#dae9f6" d="M 24.5,62.5 C 24.5,65.5 24.5,68.5 24.5,71.5C 32.1667,71.5 39.8333,71.5 47.5,71.5C 47.0101,73.9484 47.8434,75.615 50,76.5C 51.7563,75.0678 53.2563,73.4012 54.5,71.5C 61.8333,71.5 69.1667,71.5 76.5,71.5C 75.8755,77.0777 73.8755,82.0777 70.5,86.5C 65.078,92.1989 58.4113,95.1989 50.5,95.5C 30.5411,93.2043 21.8745,82.2043 24.5,62.5 Z"/></g>
<g><path style="opacity:1" fill="#759ffe" d="M 34.5,37.5 C 34.9046,38.5498 35.5712,38.5498 36.5,37.5C 37.48,40.0865 37.8134,42.7531 37.5,45.5C 30.514,49.151 26.1806,54.8176 24.5,62.5C 21.8745,82.2043 30.5411,93.2043 50.5,95.5C 50.5,97.8333 50.5,100.167 50.5,102.5C 52.099,102.232 53.4324,102.566 54.5,103.5C 36.1758,105.132 23.8425,97.4649 17.5,80.5C 15.0083,72.4618 15.0083,64.4618 17.5,56.5C 20.7154,47.9524 26.3821,41.6191 34.5,37.5 Z"/></g>
<g><path style="opacity:1" fill="#fdb56f" d="M 48.5,82.5 C 52.1612,82.3501 53.1612,83.8501 51.5,87C 47.7071,87.4866 46.7071,85.9866 48.5,82.5 Z"/></g>
<g><path style="opacity:1" fill="#9f95fb" d="M 70.5,86.5 C 70.1826,89.5719 70.5159,92.5719 71.5,95.5C 73.5,93.8333 75.5,92.1667 77.5,90.5C 78.1667,93.8333 78.8333,97.1667 79.5,100.5C 83.5595,98.378 85.5595,95.0447 85.5,90.5C 86.3091,92.2922 86.8091,94.2922 87,96.5C 92.3333,101.833 97.6667,107.167 103,112.5C 105.397,120.434 102.564,123.601 94.5,122C 88.6667,116.167 82.8333,110.333 77,104.5C 75.6124,105.554 74.1124,105.72 72.5,105C 70.6667,103.167 68.8333,101.333 67,99.5C 63.2137,101.989 59.047,103.322 54.5,103.5C 53.4324,102.566 52.099,102.232 50.5,102.5C 50.5,100.167 50.5,97.8333 50.5,95.5C 58.4113,95.1989 65.078,92.1989 70.5,86.5 Z"/></g>
<g><path style="opacity:0.911" fill="#ccd2de" d="M 21.5,105.5 C 26.1785,105.334 30.8452,105.501 35.5,106C 37.5268,107.396 37.8602,109.062 36.5,111C 31.5,111.667 26.5,111.667 21.5,111C 20.2475,109.172 20.2475,107.339 21.5,105.5 Z"/></g>
<g><path style="opacity:1" fill="#b8ced3" d="M 33.5,116.5 C 37.35,116.701 38.35,118.534 36.5,122C 31.3158,122.816 26.3158,122.65 21.5,121.5C 21.5872,120.502 21.9205,119.335 22.5,118C 26.3563,117.823 30.023,117.323 33.5,116.5 Z"/></g>
<g><path style="opacity:0.573" fill="#70515e" d="M 33.5,116.5 C 30.023,117.323 26.3563,117.823 22.5,118C 21.9205,119.335 21.5872,120.502 21.5,121.5C 20.1991,120.116 20.1991,118.616 21.5,117C 25.4862,116.501 29.4862,116.334 33.5,116.5 Z"/></g>
</svg>
